Coordinates
version=1
nRows=17
nColumns=24
inDegrees=yes

Units are S.I. units (second, meters, Newtons, ...)
Angles are in degrees.

endheader
time	pelvis_tilt	pelvis_list	pelvis_rotation	pelvis_tx	pelvis_ty	pelvis_tz	hip_flexion_r	hip_adduction_r	hip_rotation_r	knee_angle_r	ankle_angle_r	subtalar_angle_r	mtp_angle_r	hip_flexion_l	hip_adduction_l	hip_rotation_l	knee_angle_l	ankle_angle_l	subtalar_angle_l	mtp_angle_l	lumbar_extension	lumbar_bending	lumbar_rotation
      0.71316667	      2.53268327	      2.92122459	     -1.83144674	     -0.45308853	      1.02155847	      0.28530127	      8.60285301	     -0.34981524	     -1.33822593	    -18.52682900	      7.21412607	     -7.91338293	      8.16841683	     13.59990794	      1.94577253	     -7.30246026	    -67.65355341	      0.33993572	    -17.13095779	      1.08347931	     -7.53698141	     -3.05856839	      3.78472773
      0.71733333	      2.53157208	      3.07630905	     -1.92839918	     -0.44797359	      1.02239087	      0.28557094	      8.16666654	     -0.50998745	     -1.26820513	    -18.26911562	      7.34012238	     -7.82825171	      8.16792903	     14.11987740	      2.08403507	     -7.42661672	    -67.33060665	      0.55091780	    -17.15437035	      1.07200066	     -7.54352491	     -3.23236953	      4.04772630
      0.72150000	      2.52020744	      3.22376946	     -2.02252940	     -0.44284076	      1.02317691	      0.28581974	      7.73732042	     -0.66571229	     -1.20860489	    -18.00517029	      7.45565622	     -7.74183928	      8.16745033	     14.63506530	      2.20969464	     -7.54953795	    -66.94514273	      0.76465883	    -17.12252060	      1.06537971	     -7.52699235	     -3.38537001	      4.28080590
      0.72566667	      2.50746458	      3.36327605	     -2.12592662	     -0.43771933	      1.02391188	      0.28606909	      7.31240922	     -0.81697091	     -1.15492134	    -17.74305197	      7.60906903	     -7.61189771	      8.16718506	     15.13945774	      2.32149781	     -7.67466760	    -66.50602749	      0.96093237	    -17.03352438	      1.05953053	     -7.52289080	     -3.55065634	      4.60537578
      0.72983333	      2.50124459	      3.51505766	     -2.23394045	     -0.43257952	      1.02464418	      0.28629623	      6.87855800	     -0.98775846	     -1.11685772	    -17.47291760	      7.70151941	     -7.50184473	      8.16702056	     15.61329669	      2.45165101	     -7.79695367	    -65.98768887	      1.16075513	    -16.92773317	      1.06124386	     -7.51279565	     -3.71413283	      4.80137242
      0.73400000	      2.49244015	      3.64542066	     -2.34527665	     -0.42744674	      1.02529778	      0.28651515	      6.45133658	     -1.13954642	     -1.09499503	    -17.21340010	      7.87428997	     -7.32421268	      8.16876056	     16.08012954	      2.54692868	     -7.92739592	    -65.43034813	      1.36448963	    -16.74902364	      1.06942268	     -7.50442362	     -3.84964485	      5.14820520
      0.73816667	      2.47394712	      3.77263609	     -2.45014156	     -0.42231011	      1.02593106	      0.28671648	      6.02483343	     -1.28993605	     -1.07738607	    -16.92883671	      7.95112509	     -7.19746584	      8.16956370	     16.53864170	      2.64325045	     -8.04045396	    -64.80503318	      1.54676645	    -16.55919949	      1.08059959	     -7.48322062	     -3.99213495	      5.33765757
      0.74233333	      2.45432165	      3.88987474	     -2.56403299	     -0.41717256	      1.02648615	      0.28691351	      5.60656993	     -1.43412033	     -1.07179550	    -16.66189787	      8.12548456	     -6.98884233	      8.17316264	     16.98543558	      2.71905596	     -8.16649536	    -64.13994424	      1.74869194	    -16.31328573	      1.10686559	     -7.46796778	     -4.12017690	      5.68498402
      0.74650000	      2.44916414	      4.01589870	     -2.67542199	     -0.41203569	      1.02705697	      0.28709585	      5.16564732	     -1.59123094	     -1.07449255	    -16.37282160	      8.19730442	     -6.84359074	      8.17527407	     17.39309313	      2.80991531	     -8.28166850	    -63.39627787	      1.90487970	    -16.06252193	      1.12696812	     -7.46169491	     -4.26437154	      5.86631389
      0.75066667	      2.44258729	      4.12932989	     -2.79225708	     -0.40688513	      1.02756370	      0.28727757	      4.72842467	     -1.73775134	     -1.08640270	    -16.09245804	      8.32041268	     -6.65427685	      8.17971474	     17.78450972	      2.87912285	     -8.40352758	    -62.60880108	      2.08285465	    -15.75580944	      1.15491125	     -7.45365262	     -4.38723705	      6.12456078
      0.75483333	      2.42249777	      4.21750365	     -2.90847706	     -0.40174680	      1.02797812	      0.28744224	      4.30784758	     -1.85871377	     -1.11010808	    -15.81745889	      8.49922092	     -6.41738817	      8.18745170	     18.18052203	      2.91670304	     -8.52288880	    -61.79035139	      2.26935617	    -15.44661841	      1.20635671	     -7.43503286	     -4.47828120	      6.48622434
      0.75900000	      2.40175042	      4.32548471	     -3.02296039	     -0.39660236	      1.02837972	      0.28758992	      3.88814435	     -2.00423152	     -1.13875459	    -15.53634037	      8.57818823	     -6.24916603	      8.19195988	     18.55105033	      2.98166932	     -8.63459475	    -60.89124214	      2.39508732	    -15.13592971	      1.24215686	     -7.40671598	     -4.59226816	      6.68188054
      0.76316667	      2.40679889	      4.39639602	     -3.13586256	     -0.39146089	      1.02874419	      0.28773797	      3.43119472	     -2.11188261	     -1.17815882	    -15.24177524	      8.74537139	     -6.00858680	      8.20161063	     18.88150217	      2.99761392	     -8.74797233	    -59.97131921	      2.57167291	    -14.77488952	      1.30789025	     -7.42223093	     -4.67073831	      7.01638245
      0.76733333	      2.39411561	      4.46617137	     -3.24604944	     -0.38631714	      1.02904766	      0.28787566	      2.99477952	     -2.21768844	     -1.21813559	    -14.94919513	      8.86338889	     -5.81168674	      8.21000234	     19.21108982	      3.01459400	     -8.85136025	    -58.99463482	      2.70422480	    -14.42404342	      1.37639413	     -7.40993453	     -4.74688238	      7.28049679
      0.77150000	      2.36460751	      4.54569248	     -3.35175966	     -0.38117536	      1.02929714	      0.28798873	      2.58104366	     -2.33540984	     -1.26409388	    -14.66139640	      8.93823291	     -5.64570501	      8.21576442	     19.53655023	      3.04631072	     -8.94726373	    -57.95294486	      2.78947500	    -14.08063840	      1.42251791	     -7.37214443	     -4.82819155	      7.46859911
      0.77566667	      2.35093294	      4.59743707	     -3.46167966	     -0.37602818	      1.02948481	      0.28811267	      2.14670326	     -2.42411464	     -1.30995385	    -14.37314724	      9.10996833	     -5.40816762	      8.22713279	     19.83017990	      3.03904518	     -9.05133639	    -56.89157598	      2.92552307	    -13.70855981	      1.50769631	     -7.36829362	     -4.88366922	      7.80469867
      0.77983333	      2.35513312	      4.64841639	     -3.56093743	     -0.37088142	      1.02968223	      0.28821158	      1.68678727	     -2.51428062	     -1.36789325	    -14.07074400	      9.22423512	     -5.21982574	      8.23604978	     20.07984680	      3.03907740	     -9.14068197	    -55.76503053	      3.00776808	    -13.35915781	      1.58845424	     -7.37747784	     -4.93971771	      8.04987235
